<svg id="Layer_1" data-name="Layer 1" xmlns="http://www.w3.org/2000/svg" xmlns:xlink="http://www.w3.org/1999/xlink" viewBox="0 0 608.13 583.61"><defs><style>.cls-1,.cls-13,.cls-14,.cls-15,.cls-16,.cls-21,.cls-22{fill:none;}.cls-2{clip-path:url(#clip-path);}.cls-3{fill:#75b66f;}.cls-4{fill:#57aa5d;}.cls-5{fill:#478e48;}.cls-6{fill:#df8d11;}.cls-7{fill:#d0b925;}.cls-8{fill:#d6891c;}.cls-10,.cls-16,.cls-9{stroke:#000;}.cls-10,.cls-13,.cls-14,.cls-15,.cls-16,.cls-22,.cls-9{stroke-miterlimit:10;}.cls-14,.cls-16,.cls-9{stroke-width:2px;}.cls-10{fill:#e99100;}.cls-11{fill:#8c5d20;}.cls-12{fill:#fff;}.cls-13{stroke:#8c5d20;}.cls-13,.cls-15{stroke-width:2.5px;}.cls-14{stroke:#020102;}.cls-15,.cls-21{stroke:#fff;}.cls-17{fill:#181818;}.cls-18{fill:#94388e;}.cls-19{fill:#d3231e;}.cls-20{fill:#fffefe;}.cls-21{stroke-linecap:round;stroke-linejoin:round;stroke-width:6px;}.cls-22{stroke:#010001;}</style><clipPath id="clip-path" transform="translate(-17.24 -4.32)"><rect class="cls-1" x="-133.1" y="-98.44" width="908.82" height="642.6"/></clipPath></defs><g class="cls-2"><path class="cls-3" d="M121.46,257.54c93-27.82,101.17-71.45,101.17-71.45L107.9,265.54,96.44,295.2,123.37,287Z" transform="translate(-17.24 -4.32)"/><path class="cls-4" d="M341.26,130.45l-169.2,94.46-25.79,18.17L107.9,274.89,97.33,292.5,83.71,333.55a110.57,110.57,0,0,0,19.17,48c23.75,35.62,62.61,47.5,99.31,60.45,48.1,17.43,95.75,4.69,142.08-12.62l.19-6,1-20.22,3.28-35.69L356.39,317l4.11-20.56,8.11-33.87,1.21-.57a1,1,0,0,1,0-.18h0a2.17,2.17,0,0,1,.22-.65.05.05,0,0,1,.1,0h0s0-.07.07,0a1,1,0,0,1,.3.46l0,.06,63.94-30.14,16.41,5.34,12.43,3.78V226.18L466.65,207l7.44-23.47,6.81-12.78,3.38-24.44Z" transform="translate(-17.24 -4.32)"/><path class="cls-5" d="M344.29,429.36l.06-1.71,5-67,9.27-57,11-47.5-8-20.59-9.69-17-26.34,30.7-24.39,4.13-44.73,23.31-22.21,32.9-14.79,24.78-31.56,59.81-23.12,34c12.27,5.11,25,9.38,37.4,13.77C250.3,459.42,298,446.68,344.29,429.36Z" transform="translate(-17.24 -4.32)"/><path class="cls-6" d="M477.64,332.52l-6.71-12.34a1.36,1.36,0,0,1-.41-.22,4.09,4.09,0,0,1-1.57-2.71c-6-7.06-9.92-16.09-14.79-23.82a1.07,1.07,0,0,1,1.23-1.56,1.48,1.48,0,0,1,0-.21l-5.5-10.11L447,272c-.12-.1-.24-.2-.35-.31l-.78-1a3.66,3.66,0,0,1-.6-1.85,4.1,4.1,0,0,1-.09-.92c-1.37-1.47-2-3.6-2.67-5.55-.93-2.89-1.34-5.88-2.12-8.8a63,63,0,0,0-4.59-11.12,1.11,1.11,0,0,1-.05-.85,43.33,43.33,0,0,1-1.44-5.65,1.08,1.08,0,0,1,1.19-1.34l-.95-3.09,5.79-1.12L385.45,213l-28.75,8.73,10.94,30.41,9.37,15.5,8,9.31,67.09,70.71,32.87,26,16.45,6.24v-5Z" transform="translate(-17.24 -4.32)"/><path class="cls-6" d="M375.69,257.82a1.89,1.89,0,0,1-.53,0l.67.09-.23,0a1.85,1.85,0,0,0-1,0,1.79,1.79,0,0,0-.93.29,1.83,1.83,0,0,0-.7.65,1.89,1.89,0,0,0-.45.85l-.09.66a2.43,2.43,0,0,0,.34,1.26l.39.51a2.5,2.5,0,0,0,1.1.64l.2,0c.28,0,.56.09.84.11a2.44,2.44,0,0,0,.38,0,2.83,2.83,0,0,0,1.77-.73,2,2,0,0,0,.52-.81,2,2,0,0,0,.21-1l-.09-.67a2.5,2.5,0,0,0-.64-1.1l-.51-.39a2.43,2.43,0,0,0-1.26-.34Z" transform="translate(-17.24 -4.32)"/><path class="cls-7" d="M475.72,194.43a5.73,5.73,0,0,1,.72-2.13c.4-.87.79-1.74,1.16-2.62q1.23-2.85,2.33-5.74c1.16-3.09,1.9-6.82,4.12-9.37a2.56,2.56,0,0,0,0-3.54,2.52,2.52,0,0,0-3.53,0c-2.78,3.2-3.82,7.3-5.27,11.19-.74,2-1.52,3.94-2.37,5.87s-2.08,4-2.16,6.34c-.11,3.22,4.89,3.22,5,0Z" transform="translate(-17.24 -4.32)"/><path class="cls-8" d="M500.72,380.57c3.22,0,3.22-5,0-5s-3.22,5,0,5Z" transform="translate(-17.24 -4.32)"/><path class="cls-3" d="M482.13,165.41c3.22,0,3.22-5,0-5s-3.22,5,0,5Z" transform="translate(-17.24 -4.32)"/><path class="cls-3" d="M484,160.6a6.4,6.4,0,0,0,0-.76,10.84,10.84,0,0,0-.21-1.39,2,2,0,0,0-.45-.85,2.26,2.26,0,0,0-1.63-.94,1.86,1.86,0,0,0-1,.05l-.6.25a2.43,2.43,0,0,0-.9.9l-.25.59a2.5,2.5,0,0,0,0,1.33,4,4,0,0,1,.09.48l-.09-.66a5.54,5.54,0,0,1,0,1,2,2,0,0,0,.21,1,2,2,0,0,0,.52.8,2.83,2.83,0,0,0,1.77.74l.66-.09a2.55,2.55,0,0,0,1.11-.65l.39-.5a2.53,2.53,0,0,0,.34-1.26Z" transform="translate(-17.24 -4.32)"/><path class="cls-4" d="M357.27,222.78c3.22,0,3.23-5,0-5s-3.22,5,0,5Z" transform="translate(-17.24 -4.32)"/><path class="cls-7" d="M415,309.15c3.22,0,3.22-5,0-5s-3.22,5,0,5Z" transform="translate(-17.24 -4.32)"/><path class="cls-6" d="M367.15,222.46A3.42,3.42,0,0,0,370,222l.34-.23c.24-.14.23-.14,0,0,.28-.06.27-.07,0,0l.43,0a8.54,8.54,0,0,0,2-.41c.73-.26,1.42-.63,2.14-.94-.37.16.49-.18.57-.2l1-.3c.57-.16,1.14-.3,1.72-.41,1.48-.29,2-.33,3.6-.51a2.56,2.56,0,0,0,2.5-2.5,2.59,2.59,0,0,0-2.5-2.5c-5.52-.69-10.82,1.82-15.29,4.81a2.5,2.5,0,0,0,2.52,4.32c1-.65,2-1.28,3-1.85q.76-.43,1.56-.81c.08,0,.92-.42.55-.26l.82-.32a13.13,13.13,0,0,1,6.85-.89v-5a33.7,33.7,0,0,0-7.85,1.48c-.67.24-1.32.53-2,.83-.08,0-.93.39-.5.23a5.7,5.7,0,0,1-.92.26c.57-.12-.06,0-.19,0a8.07,8.07,0,0,0-1.29.21,4.48,4.48,0,0,0-1.16.52l-.35.23c-.54.29-.18.26,1.06-.08a2.52,2.52,0,0,0-3.08,1.75,2.56,2.56,0,0,0,1.75,3.07Z" transform="translate(-17.24 -4.32)"/><path class="cls-7" d="M543.48,227.32h.2l-.66-.09a3.78,3.78,0,0,1,1,.28l-.6-.25a5.84,5.84,0,0,1,1.22.74l-.51-.4a8.29,8.29,0,0,1,1.45,1.45l-.39-.51a8.75,8.75,0,0,1,1.09,1.84l-.25-.59a8.7,8.7,0,0,1,.51,1.69,2.5,2.5,0,0,0,4.57.59,2.77,2.77,0,0,0,.25-1.92,10.79,10.79,0,0,0-2.45-4.89,10.45,10.45,0,0,0-2.06-1.81,6.53,6.53,0,0,0-3.35-1.14,2.5,2.5,0,0,0-1.77,4.26,2.77,2.77,0,0,0,1.77.74Z" transform="translate(-17.24 -4.32)"/><polygon class="cls-9" points="417.26 227.16 416.74 223.2 424.9 226.85 431.08 229.63 430.75 231.59 417.26 227.16"/><path d="M515.91,256.82l1.84.65.84.31.41.16c.36.13-.32-.16,0,0a13.45,13.45,0,0,1,1.66.92l.73.52c.16.12.23.18,0,0l.44.35a13.3,13.3,0,0,1,1.39,1.2c.41.43.73.93,1.13,1.37a20.49,20.49,0,0,0,2.82,2.34,2.76,2.76,0,0,0,1.77.73,2.52,2.52,0,0,0,1.76-.73c.83-.9,1.11-2.68,0-3.54a20.19,20.19,0,0,1-2.89-2.41c-.41-.48-.76-1-1.22-1.46s-1-.89-1.57-1.31a17.05,17.05,0,0,0-3.63-2.37c-1.37-.61-2.79-1.08-4.2-1.58a2.52,2.52,0,0,0-3.08,1.74,2.57,2.57,0,0,0,1.75,3.08Z" transform="translate(-17.24 -4.32)"/><path d="M528.17,264.83c3.22,0,3.22-5,0-5s-3.22,5,0,5Z" transform="translate(-17.24 -4.32)"/><path d="M516.1,256.73c3.22,0,3.23-5,0-5s-3.22,5,0,5Z" transform="translate(-17.24 -4.32)"/><path d="M528.16,264.92c3.22,0,3.23-5,0-5s-3.22,5,0,5Z" transform="translate(-17.24 -4.32)"/><path class="cls-6" d="M408.58,302.6l5.76,5.08c1.65,1.46,3.54,2.86,4.71,4.76l1.49-3.67v0l1.26.34c-1.24-.54-2.33-2-3.32-2.93a2.5,2.5,0,0,0-3.53,3.53l6.44,6.87c1,1.1,2.06,2.18,3.07,3.29s1.77,2.33,2.81,3.34a24,24,0,0,0,3.42,2.51,12.66,12.66,0,0,1,2.73,2.59c1.85,2.21,3.65,4.28,6.48,5.19,3.07,1,4.39-3.85,1.33-4.83-2.18-.7-3.5-3.08-5-4.69-1.77-2-4.33-2.94-6-4.93-3.79-4.41-7.77-8.63-11.75-12.87L415,309.69c1.8,1.7,4.08,4.83,6.91,3.9a2.52,2.52,0,0,0,1.49-3.67,25.27,25.27,0,0,0-5.12-5.46l-6.12-5.4a2.57,2.57,0,0,0-3.54,0,2.53,2.53,0,0,0,0,3.54Z" transform="translate(-17.24 -4.32)"/><path class="cls-10" d="M559.46,249.67l-7-19.32L513.62,192.7l-30.27-27.88-16.44,39.44-3.57,36.33,27.61,8.1,30.07,9,2.19,2.8c1.5.45,2.56,1.79,3.55,2.92a1,1,0,0,1,.25.87c3.72,3.25,6.29,8.19,8.94,12.25a1,1,0,0,1,.17.45l1.78,2.28,15,39.34,1.62-5.83L559,292l1.79-15.14Z" transform="translate(-17.24 -4.32)"/><path class="cls-6" d="M358.5,227.32a8.37,8.37,0,0,0,.73,5.32c.58,1.28,1.42,2.41,2,3.67.07.14.12.27.19.41-.11-.23-.08-.19,0,0s.25.62.36.93c.23.6.44,1.19.68,1.77a15.17,15.17,0,0,0,2.38,4.15,2.5,2.5,0,0,0,3.53,0,2.56,2.56,0,0,0,0-3.53c-.18-.23-.19-.23,0,0l-.25-.36c-.16-.25-.3-.5-.44-.76s-.25-.53-.38-.79-.12-.27,0,0l-.16-.42c-.46-1.17-.88-2.35-1.39-3.51s-1.12-2.07-1.7-3.1c-.15-.28-.3-.57-.44-.86.19.4-.15-.44-.18-.54s-.08-.31-.11-.47c0,.27,0,.25,0-.05a3.84,3.84,0,0,1,0-.48c-.05.27-.05.25,0,0a2.5,2.5,0,0,0-4.83-1.33Z" transform="translate(-17.24 -4.32)"/><path class="cls-11" d="M552.74,314.15c3.22,0,3.22-5,0-5s-3.22,5,0,5Z" transform="translate(-17.24 -4.32)"/><polygon class="cls-12" points="533.67 307.66 537.09 306.87 537.05 309.11 535.8 312.73 533.67 307.66"/><path class="cls-13" d="M552.65,310.4l-5.95-15.9S535.3,257,515.87,253.73l-52.56-14.92" transform="translate(-17.24 -4.32)"/><polygon class="cls-3" points="309.72 55.9 334.3 56.69 372.29 64.47 396.67 73.78 422.9 87.73 421.83 94.54 334.59 80.42 314.75 71.63 301.97 59.46 309.72 55.9"/><path class="cls-3" d="M314.93,167.89c2.81,3.31,16,23.81-30.81,78,1-.37,63.13-25,81.79-78.53a1.3,1.3,0,0,1,.65-.4C351.15,158.18,329.38,161.14,314.93,167.89Z" transform="translate(-17.24 -4.32)"/><path class="cls-3" d="M257.28,177.33c3.88,3.55,22.83,26.21-25.22,98.54,1.11-.6,72.13-39.59,86.45-106.86a1.67,1.67,0,0,1,.72-.59C299.37,160.15,273.63,167,257.28,177.33Z" transform="translate(-17.24 -4.32)"/><path class="cls-3" d="M480.64,130.48c-10.92-23-45.8-55.81-153.3-70.95,0,0-39.87,3-78.44,20-14,6.13-27.75,14.08-39.42,24.4l0,0c-.36.3-.7.61-1,.92,0,0-12.25,14.64-28.2,35.25h0C161.69,167.59,145,198.49,145,198.49c-10.69,11.17-27.62,46.43-36.73,66.37h0a7.94,7.94,0,0,0,5.64,6s82.82-84.68,200.54-103.5a6.15,6.15,0,0,1,.47.49c14.45-6.75,36.22-9.71,51.63-.89,1.87-.74,8.87-1.58,33.93,5.93l30.88-6.39,12.27-9.23,37.64,7.37,3.62-9.12h0C485,155,487.3,144.55,480.64,130.48Z" transform="translate(-17.24 -4.32)"/><path class="cls-14" d="M545.53,222.08l-62.18-57.26a62.67,62.67,0,0,0,1.18-8.59h0a54.17,54.17,0,0,0-4.27-25.05c-9-21.11-28.82-31.8-28.82-31.8C405.69,68.09,363,59,327,60.21h0a194.64,194.64,0,0,0-78.43,19.95c-19.75,9.67-31,19.21-31,19.21a25.82,25.82,0,0,0-8.36,5.2l0,0c-.36.3-.7.62-1,.93h0c-8.51,7.64-18.6,21-28.21,35.25h0c-18.5,27.49-35.18,58.39-35.18,58.39-10.69,11.17-27.62,46.43-36.73,66.36h0c-3.86,8.42-6.31,14.11-6.31,14.11L83.7,333.55a110.76,110.76,0,0,0,19.18,48c23.75,35.62,62.61,47.5,99.31,60.45,48.11,17.43,95.78,4.69,142.12-12.63,1.79-89.91,25.31-170.45,25.31-170.45C485.81,396.35,503.81,379.17,503.81,379.17L480.9,337.45c-37.89-56.48-45.17-96.71-46.4-106,18.65,6.69,80.76,24.16,80.76,24.16,21.27,2.45,37.63,63,37.63,63C575,242.54,545.53,222.08,545.53,222.08Z" transform="translate(-17.24 -4.32)"/><path class="cls-15" d="M482.16,166.82l66.79,62s20.51,19.9,3.86,83.43" transform="translate(-17.24 -4.32)"/><path class="cls-6" d="M389,218.35a57.78,57.78,0,0,1,10.23,2.3q5.44,1.57,10.86,3.24a76.92,76.92,0,0,1,9.72,3.47l10.1,4.65a2.57,2.57,0,0,0,3.42-.9,2.53,2.53,0,0,0-.9-3.42L422,222.86a84.94,84.94,0,0,0-10.51-3.79q-5.65-1.74-11.34-3.38A61.52,61.52,0,0,0,389,213.35a2.52,2.52,0,0,0-2.5,2.5,2.55,2.55,0,0,0,2.5,2.5Z" transform="translate(-17.24 -4.32)"/><path class="cls-13" d="M428.36,227.07c-19.59-9.5-42.26-17.06-62.77-8.42a23.27,23.27,0,0,1-5.4,3.23c-2.16,3.24-1.08,7.56,0,10.8,4.32,8.64,7.56,17.27,11.88,25.91,6.48,9.71,14,17.27,21.59,25.91,3.24,4.31,7.56,6.47,10.79,10.79,16.2,20.51,33.47,36.7,52.9,54,12.95,13,27,25.9,45.45,29.49" transform="translate(-17.24 -4.32)"/><path class="cls-16" d="M463.33,240a140.78,140.78,0,0,1,20-75.13" transform="translate(-17.24 -4.32)"/><path class="cls-16" d="M372.06,260.89c-4.31-9.86-10.79-19.57-14-30.37,0-3.24-2.15-6.48,2.16-9.71,9.72-6.48,20.51-9.72,32.39-7.56,25.91,5.4,46.42,17.27,70.22,26.92" transform="translate(-17.24 -4.32)"/><path class="cls-3" d="M365.13,167.73c2,2.15,11.36,15.53-21.9,50.92.69-.25,44.87-16.29,58.13-51.25a1.09,1.09,0,0,1,.46-.26C390.87,161.39,375.4,163.32,365.13,167.73Z" transform="translate(-17.24 -4.32)"/><path class="cls-3" d="M111.34,271.16a.26.26,0,0,1,.09-.12,5.9,5.9,0,0,0-4.22-.14A3.82,3.82,0,0,1,106,273a2.54,2.54,0,0,1-.85.51l-.47.66a3.43,3.43,0,0,1-.92.87c.82,2.18,1.39,7.24-2.6,18C101.31,292.82,110.5,284.33,111.34,271.16Z" transform="translate(-17.24 -4.32)"/><path class="cls-17" d="M432.48,166.61c-5.83-1.06-11.59-2.42-17.31-4s-11.41-3.27-17-5.3c-1.41-.48-2.8-1-4.19-1.57s-2.78-1.08-4.14-1.7l-4.11-1.81-4-2a83.25,83.25,0,0,1-15.31-9.89l.52.37c-3-1.44-6.35-2.78-9.62-3.94s-6.62-2.24-10-3.1A146.58,146.58,0,0,0,327,130a67.93,67.93,0,0,0-20.24.52,44.47,44.47,0,0,0-4.94,1.21l-2.42.81c-.8.3-1.58.63-2.38.95a47.66,47.66,0,0,0-9.08,5.24l-.5-.49a36.72,36.72,0,0,1,17.95-12.75,57.69,57.69,0,0,1,22.22-2.63,82,82,0,0,1,21.59,4.64c3.46,1.2,6.87,2.5,10.22,3.94s6.62,3,9.93,4.74l.32.17.21.2a79,79,0,0,0,13.87,10,153.83,153.83,0,0,0,15.64,7.78c5.35,2.37,10.85,4.44,16.4,6.38s11.18,3.7,16.86,5.23Z" transform="translate(-17.24 -4.32)"/><path class="cls-17" d="M350.63,134.53S349,190.78,397.17,157C397.17,157,340.5,121.42,350.63,134.53Z" transform="translate(-17.24 -4.32)"/><path class="cls-12" d="M391.09,153.24s-33.46,34.49-33.94-19.2Z" transform="translate(-17.24 -4.32)"/><path class="cls-18" d="M357.15,140.94s0,40.25,29.74,16C386.89,157,364.8,139.86,357.15,140.94Z" transform="translate(-17.24 -4.32)"/><path class="cls-17" d="M362.65,137.15s-2.42,41,23,13C385.64,150.16,362.71,134.68,362.65,137.15Z" transform="translate(-17.24 -4.32)"/><path class="cls-3" d="M138.73,233.1c3,2.72,18,20.34-8.08,81.42.7-.54,45.48-35.48,49-90.94,0,0,0-.21.43-.5C165.82,217.23,148.92,224,138.73,233.1Z" transform="translate(-17.24 -4.32)"/><path class="cls-3" d="M119.55,250.83c1.93,1.77,11.71,13.27-4.34,53.38.45-.35,28.74-23.39,30.44-59.74a.73.73,0,0,1,.27-.34C136.72,240.34,126,244.81,119.55,250.83Z" transform="translate(-17.24 -4.32)"/><path class="cls-3" d="M124.45,260.12a.44.44,0,0,1,.17-.21,12.24,12.24,0,0,0-8.16-.36,6.48,6.48,0,0,1-2.28,3.63,4.84,4.84,0,0,1-1.63.88l-.89,1.17a6.11,6.11,0,0,1-1.76,1.51c1.64,3.91,2.86,12.94-4.59,31.92C105.58,298.43,123.14,283.54,124.45,260.12Z" transform="translate(-17.24 -4.32)"/><path class="cls-14" d="M545.53,222.08l-62.18-57.26a62.67,62.67,0,0,0,1.18-8.59h0a54.17,54.17,0,0,0-4.27-25.05c-9-21.11-28.82-31.8-28.82-31.8C405.69,68.09,363,59,327,60.21h0a194.64,194.64,0,0,0-78.43,19.95c-19.75,9.67-31,19.21-31,19.21a25.82,25.82,0,0,0-8.36,5.2l0,0c-.36.3-.7.62-1,.93h0c-8.51,7.64-18.6,21-28.21,35.25h0c-18.5,27.49-35.18,58.39-35.18,58.39-10.69,11.17-27.62,46.43-36.73,66.36h0c-3.86,8.42-6.31,14.11-6.31,14.11L83.7,333.55a110.76,110.76,0,0,0,19.18,48c23.75,35.62,62.61,47.5,99.31,60.45,48.11,17.43,95.78,4.69,142.12-12.63,1.79-89.91,25.31-170.45,25.31-170.45C485.81,396.35,503.81,379.17,503.81,379.17L480.9,337.45c-37.89-56.48-45.17-96.71-46.4-106,18.65,6.69,80.76,24.16,80.76,24.16,21.27,2.45,37.63,63,37.63,63C575,242.54,545.53,222.08,545.53,222.08Z" transform="translate(-17.24 -4.32)"/><polygon class="cls-9" points="417.26 227.16 416.73 223.2 431.08 229.69 430.34 231.41 417.26 227.16"/><path class="cls-16" d="M371.49,260s1.81,2.69,1.5,3.16" transform="translate(-17.24 -4.32)"/><path d="M429.81,225.69s-46-26-69.62-4.88c0,0,15.73,59.06,129.54,148.35C489.73,369.16,430,270.06,429.81,225.69Z" transform="translate(-17.24 -4.32)"/><path class="cls-19" d="M431.6,251.49s-7,1.79-6.79,26.84c0,0-10.49-4.63-4.93-14.19,0,0-8.64,10.18-3.09,16.65,0,0-20.36-9.86-24.67-29.3,0,0-4.32,6.48-2.47,8.95,0,0,35.78,48.73,50.27,55.21C439.92,315.65,423.27,255.2,431.6,251.49Z" transform="translate(-17.24 -4.32)"/><path class="cls-20" d="M522.27,220s23.44,12.34,24.68,34.24c0,0-4,3.7-5.55,0,0,0,5.86-6.17-4.32-4.32,0,0,3.08-8.94-3.7-4.62,0,0,2.46-8.33-3.7-4.94,0,0,2.77-7.09-4.63-4.32,0,0,2.16-6.78-2.78-4,0,0,0-6.47-4.62-3.08,0,0-7.1-3.7-4.32-7.17C513.33,221.81,516,217.91,522.27,220Z" transform="translate(-17.24 -4.32)"/><path d="M500,191.19s-17.39-.42-21.53,18.48c0,0-.56,9.61-6,11.81,0,0,13.69-1.8,14.06-9.59,0,0,6-7.21,11-4.85C497.51,207,502.73,203,500,191.19Z" transform="translate(-17.24 -4.32)"/><path class="cls-3" d="M207,196.9c4.17,3,25.11,23-13.84,98.75,1-.71,66-46.43,72.61-113.53,0,0,.08-.26.63-.65C246.12,175.58,221.79,185.07,207,196.9Z" transform="translate(-17.24 -4.32)"/><path class="cls-3" d="M171.43,215.81c3.31,2.85,20.19,21.5-4.89,89.05.72-.62,47.08-40.35,48.31-100.93a1.2,1.2,0,0,1,.45-.57C199.71,197.51,181.92,205.47,171.43,215.81Z" transform="translate(-17.24 -4.32)"/></g><path class="cls-1" d="M642.82,142.23" transform="translate(-17.24 -4.32)"/><polyline class="cls-21" points="183.14 515.07 183.14 569.01 183.14 515.07 183.14 543.41 3 543.41 3 3 605.13 3 605.13 543.41 431.86 543.41 431.86 572.67 431.86 515.07"/><line class="cls-22" x1="181.96" y1="436.62" x2="191.29" y2="439.8"/><path class="cls-12" d="M240.4,534.13c-1.2-4.69-3.19-9.31-9.87-9.31-5.54,0-7.46,4-7.46,7.74,0,4.9,3.12,7.39,9,10.45,8.52,4.4,12.22,7.67,12.21,14.42,0,7.46-6.47,13.14-15.63,13.14a29.57,29.57,0,0,1-10.87-2.35,95.28,95.28,0,0,1-1.91-10.65l2.2-.57c1.42,4.76,4.54,10.94,11.93,10.94a7.81,7.81,0,0,0,8.24-8.17c0-5.47-2.91-7.67-9.16-11.08-7.46-4.05-11.65-7.46-11.64-14.07,0-6.32,5.26-12.29,14.63-12.29a45.76,45.76,0,0,1,9.38,1.35c.29,2.56.57,5.4,1.14,10Z" transform="translate(-17.24 -4.32)"/><path class="cls-12" d="M284.37,569.52c-3.84,0-8,.07-9.52.14-.43-.5-11.58-13.71-12-14.14-1-1.14-1.42-1.49-2.06-1.49a4.38,4.38,0,0,0-1.27.14v7.88c0,4.76.36,5.05,5,5.48v2h-15.7v-2c4.76-.42,5.12-.92,5.12-5.47v-34c0-4.62-.5-4.76-4.9-5.4v-1.85a43.69,43.69,0,0,0,10.52-2.41c0,3.06,0,6,0,9v24.86a8.44,8.44,0,0,0,4.54-2.49,58.44,58.44,0,0,0,5.48-6.6c1.49-2.06.92-2.63-2.49-2.91v-2l14.64-.64v1.92c-5,.78-6.4,1.35-9.45,4.54-1.35,1.42-4.55,5.05-6.05,6.89,1.42,2,8.67,10.24,11,12.72,3.41,3.41,4.41,3.63,7.18,3.77Z" transform="translate(-17.24 -4.32)"/><path class="cls-12" d="M317.55,540.26c-3.69.57-4.47,1.13-6.25,5.18s-3.7,8.81-8.6,21.17a189.86,189.86,0,0,0-7,19.47c-.43,1.49-1.21,1.84-2.14,1.84-2.27,0-4.33-1.63-4.33-3.41,0-.92.5-1.56,1.57-2.48a16.08,16.08,0,0,0,4.76-5.26c1.49-3,2.56-5.47,2.91-6.39a4.12,4.12,0,0,0-.14-2.92c-2.77-8.1-6.6-16.84-8.73-22-1.56-3.91-2.2-4.76-6.11-5.26v-1.92H297.8v1.91c-3.27.5-3.62,1.21-2.7,3.84L302,561.57c2-4.9,4.83-12.79,6.32-17.26.86-2.7.36-3.48-3.76-4v-1.92h13Z" transform="translate(-17.24 -4.32)"/><path class="cls-12" d="M353.49,567.76a76.3,76.3,0,0,0-11,2.63v-4.62c-1.28.78-3.13,1.78-4.41,2.56-2.84,1.63-4.76,2.06-5.61,2.06-5.68,0-13.21-5.69-13.21-15.64s8.67-17.26,18.41-17.26a14.78,14.78,0,0,1,4.83.79V527.83c0-4.54-.5-4.69-5.54-5.11v-1.85a71.62,71.62,0,0,0,11.15-2.41V561.3c0,3.69.5,4.19,3.13,4.33l2.27.14Zm-11-23.87a8.88,8.88,0,0,0-7.45-3.63c-3.41,0-9.45,2.28-9.46,12.51,0,8.59,5.33,13.14,9.88,13.21a12.78,12.78,0,0,0,7-2.55Z" transform="translate(-17.24 -4.32)"/><path class="cls-12" d="M382.69,563.51c-4.55,5.68-9.52,6.89-11.8,6.89-8.66,0-13.92-7.11-13.92-15.28a18.24,18.24,0,0,1,4.62-12.43,14.6,14.6,0,0,1,10.59-5.19,11.09,11.09,0,0,1,10.87,11c-.07,1.42-.29,2.06-1.42,2.34-1.42.29-10.52.92-19,1.2-.22,9.52,5.61,13.43,10.65,13.44,2.91,0,5.61-1.21,8.24-3.62ZM370.47,540.2c-3.26,0-6.46,3.06-7.46,8.81,4,0,8,0,12.15-.21,1.28,0,1.71-.35,1.71-1.42C376.94,543.62,374.45,540.2,370.47,540.2Z" transform="translate(-17.24 -4.32)"/><path class="cls-12" d="M403.64,569.55H387.3v-2c4.48-.42,4.91-.78,4.91-5.4V547.38c0-4.68-.28-4.9-4.4-5.4v-1.77a39.51,39.51,0,0,0,10-2.91c0,2.34,0,5.47,0,7.81,2.49-3.69,5.48-7.6,9-7.6,2.63,0,4.12,1.64,4.12,3.41a4.76,4.76,0,0,1-2.42,3.91,1.38,1.38,0,0,1-1.84-.14c-1.07-1.07-1.92-1.78-3.2-1.78-1.49,0-4.12,2.2-5.69,5.83v13.35c0,4.69.35,5,5.82,5.47Z" transform="translate(-17.24 -4.32)"/><path class="cls-12" d="M431.85,546.83c-1.27-4.12-3.12-7-7.46-7a4.31,4.31,0,0,0-4.4,4.62c0,3,2.06,4.48,6,6.32,6.1,2.92,9.16,5.05,9.16,9.74,0,6.54-6,9.87-11.59,9.87a18.59,18.59,0,0,1-8.45-2c-.35-2.06-1-6-1.27-8.31l2.06-.36c1.27,4.55,3.76,8.25,8.73,8.25a4.75,4.75,0,0,0,5-4.83c0-3.2-1.92-4.84-5.69-6.68-5-2.42-9-4.69-9-9.81s4.41-9.16,11.09-9.16a36.93,36.93,0,0,1,6.82.92c.21,1.71.71,6.19,1.06,7.89Z" transform="translate(-17.24 -4.32)"/></svg>